<svg xmlns:mydata="http://www.w3.org/2000/svg" mydata:contrastcolor="ffffff" mydata:template="InvertedHex1" mydata:presentation="2.5" mydata:layouttype="undefined" mydata:specialfontid="undefined" mydata:id1="769" mydata:id2="769" mydata:companyname="NexCV" mydata:companytagline="" version="1.1" xmlns="http://www.w3.org/2000/svg" xmlns:xlink="http://www.w3.org/1999/xlink" viewBox="0 0 550 470" style="height: 497px;" width="100"  height="85.45454545454545" ><g fill="#FFFFFF" fill-rule="evenodd" stroke="none" stroke-width="1" stroke-linecap="butt" stroke-linejoin="miter" stroke-miterlimit="10" stroke-dasharray="" stroke-dashoffset="0" font-family="none" font-weight="none" font-size="none" text-anchor="none" style="mix-blend-mode: normal"><g data-paper-data="{&quot;isGlobalGroup&quot;:true,&quot;bounds&quot;:{&quot;x&quot;:146.00000000000003,&quot;y&quot;:106,&quot;width&quot;:258,&quot;height&quot;:258}}" fill="#FFFFFF"><g data-paper-data="{&quot;isContainerElementsWrapper&quot;:true}" id="element-id-33683" fill="#FFFFFF"><path d="M183.78319,143.78324c-11.90043,11.90043 -21.1147,25.56775 -27.64282,41.00198c-6.76025,15.98292 -10.14037,32.72114 -10.14037,50.21466c0,17.49352 3.38012,34.23174 10.14037,50.21466c6.52819,15.43443 15.74246,29.10173 27.64282,41.00193c11.90026,11.90052 25.5676,21.11491 41.00203,27.64317c15.98292,6.76025 32.72114,10.14037 50.21466,10.14037c17.49385,0 34.23207,-3.38012 50.21466,-10.14037c15.43443,-6.52825 29.10173,-15.74264 41.00193,-27.64317c11.90052,-11.90019 21.11491,-25.5675 27.64317,-41.00193c6.76025,-15.98292 10.14037,-32.72114 10.14037,-50.21466c0,-17.49352 -3.38012,-34.23174 -10.14037,-50.21466c-6.52859,-15.43439 -15.74297,-29.10172 -27.64317,-41.00198c-11.90019,-11.90049 -25.5675,-21.11479 -41.00193,-27.6429c-15.98292,-6.76022 -32.72114,-10.14033 -50.21466,-10.14033c-17.49352,0 -34.23174,3.38011 -50.21466,10.14034c-15.43443,6.52807 -29.10177,15.74237 -41.00203,27.64289zM150.25122,234.99988c0,-16.91884 3.26817,-33.10492 9.80451,-48.55824c6.31273,-14.92527 15.22393,-28.14273 26.73358,-39.65238c11.50952,-11.50959 24.72696,-20.42076 39.65233,-26.73352c15.45332,-6.53634 31.6394,-9.80452 48.55824,-9.80452c16.91884,0 33.10492,3.26818 48.55824,9.80453c14.92537,6.31276 28.14294,15.22393 39.65273,26.73351c11.50945,11.50965 20.4206,24.72711 26.73343,39.65238c6.53621,15.45365 9.80431,31.63973 9.80431,48.55824c0,16.91884 -3.2681,33.10492 -9.80431,48.55824c-6.31283,14.92537 -15.22398,28.14294 -26.73343,39.65273c-11.50978,11.50945 -24.72736,20.4206 -39.65273,26.73343c-15.45332,6.53621 -31.6394,9.80431 -48.55824,9.80431c-16.91917,0 -33.10525,-3.2681 -48.55824,-9.80431c-14.92537,-6.31283 -28.14281,-15.22398 -39.65233,-26.73343c-11.50955,-11.50978 -20.42074,-24.72736 -26.73358,-39.65273c-6.53634,-15.45332 -9.80451,-31.6394 -9.80451,-48.55824z" data-paper-data="{&quot;isOuterDoubleOutline&quot;:true}" id="element-id-26062" fill="#FFFFFF"></path><path d="M274.99988,113.01842c-67.36848,0 -121.98146,54.61293 -121.98146,121.98146c0,67.36848 54.61298,121.9817 121.98146,121.9817c67.36848,0 121.9817,-54.61323 121.9817,-121.9817c0,-67.36853 -54.61323,-121.98146 -121.9817,-121.98146zM257.03525,256.08794h-35.92578c-0.02436,0 -0.04375,-0.01989 -0.04375,-0.04424v-42.08864c0,-0.02436 0.01939,-0.04424 0.04375,-0.04424h35.92578c0.02436,0 0.04424,0.01989 0.04424,0.04424v8.41783c0,0.02386 -0.01989,0.04375 -0.04424,0.04375h-27.46371v8.32984h19.04936c0.02386,0 0.04375,0.01989 0.04375,0.04375v8.41783c0,0.02436 -0.01989,0.04424 -0.04375,0.04424h-19.04936v8.32984h27.46371c0.02436,0 0.04424,0.01989 0.04424,0.04375v8.41783c0,0.02436 -0.01989,0.04424 -0.04424,0.04424zM188.17688,256.08894h-8.41231c-0.02421,0 -0.0439,-0.01989 -0.0439,-0.04424v-42.08864c0,-0.02436 0.01969,-0.04424 0.0439,-0.04424h9.89474c0.01491,0 0.02933,0.00795 0.03728,0.02088l17.53312,28.35406v-28.33069c0,-0.02436 0.01989,-0.04424 0.04375,-0.04424h8.41584c0.02436,0 0.04375,0.01989 0.04375,0.04424v42.08864c0,0.02436 -0.01939,0.04424 -0.04375,0.04424h-9.89429c-0.01541,0 -0.02933,-0.00795 -0.03728,-0.02088l-17.5371,-28.35406v28.33069c0,0.02436 -0.01939,0.04424 -0.04375,0.04424zM298.413,213.93467c-0.00746,-0.01442 -0.02237,-0.02287 -0.03828,-0.02287h-9.89031c-0.01541,0 -0.02983,0.00795 -0.03728,0.02088l-8.03106,12.98592l-8.03007,-12.98592c-0.00795,-0.01293 -0.02237,-0.02088 -0.03728,-0.02088h-9.89429c-0.01591,0 -0.03082,0.00895 -0.03828,0.02287c-0.00746,0.01392 -0.00746,0.03082 0.00099,0.04424l13.00083,21.02096l-13.00083,21.02145c-0.00795,0.01392 -0.00845,0.03082 -0.00099,0.04424c0.00746,0.01392 0.02237,0.02237 0.03828,0.02237h9.89429c0.01491,0 0.02933,-0.00746 0.03728,-0.02038l8.03007,-12.98592l8.03106,12.98592c0.00746,0.01293 0.02187,0.02038 0.03728,0.02038h9.89031c0.01591,0 0.03082,-0.00845 0.03828,-0.02237c0.00746,-0.01392 0.00746,-0.03082 -0.00099,-0.04424l-12.99884,-21.02145l12.99884,-21.02096c0.00845,-0.01342 0.00895,-0.03032 0.00099,-0.04424zM356.69154,256.08894c0.01939,0 0.03579,-0.01243 0.04176,-0.03082l13.54369,-42.08864c0.00398,-0.01342 0.00199,-0.02834 -0.00646,-0.03977c-0.00845,-0.01094 -0.02187,-0.0179 -0.03579,-0.0179h-8.83691c-0.01939,0 -0.03629,0.01243 -0.04176,0.03082l-9.08348,28.22878l-9.08298,-28.22878c-0.00597,-0.01839 -0.02287,-0.03082 -0.04226,-0.03082h-8.83691c-0.01392,0 -0.02684,0.00696 -0.0353,0.0179c-0.00845,0.01143 -0.01094,0.02635 -0.00696,0.03977l13.54419,42.08864c0.00547,0.01839 0.02237,0.03082 0.04176,0.03082zM331.9312,249.91116c-4.11123,4.11123 -9.5115,6.16684 -14.91178,6.16684c-5.40028,0 -10.80055,-2.05561 -14.91178,-6.16734c-3.98347,-3.98297 -6.17679,-9.27835 -6.17679,-14.91178c0,-5.63293 2.19332,-10.92881 6.17679,-14.91178c8.22246,-8.22246 21.6011,-8.22246 29.82356,0c0.0169,0.0174 0.0169,0.04474 0,0.06214l-5.95209,5.95258c-0.01641,0.01641 -0.04524,0.01641 -0.06264,0c-4.90564,-4.90613 -12.88848,-4.90613 -17.79461,0c-2.37626,2.37676 -3.68519,5.53649 -3.68519,8.89755c0,3.36107 1.30843,6.5208 3.68519,8.89706c4.90613,4.90613 12.88898,4.90613 17.79461,0c0.0174,-0.01641 0.04623,-0.01641 0.06264,0l5.95209,5.95258c0.0169,0.0174 0.0169,0.04524 0,0.06214z" data-paper-data="{&quot;isBaseLogoContainer&quot;:true}" id="element-id-15379" fill="#FFFFFF"></path></g></g></g><rect data-element-id="element-id-33683" stroke-width="2px" fill="#000000" class="invisible-element-box grouping-element" x="146" y="106" width="258" height="258" data-element-name="isContainerElementsWrapper" fill-opacity="0"></rect><rect data-element-id="element-id-26062" stroke-width="2px" fill="#000000" class="invisible-element-box individual-element" x="146" y="106" width="258" height="258" fill-opacity="0"></rect><rect data-element-id="element-id-15379" stroke-width="2px" fill="#000000" class="invisible-element-box individual-element" x="153" y="113" width="244" height="244" fill-opacity="0"></rect></svg>