<svg xmlns:mydata="http://www.w3.org/2000/svg" mydata:contrastcolor="ffffff" mydata:template="InvertedHex1" mydata:presentation="2.5" mydata:layouttype="undefined" mydata:specialfontid="undefined" mydata:id1="769" mydata:id2="769" mydata:companyname="NexCV" mydata:companytagline="" version="1.1" xmlns="http://www.w3.org/2000/svg" xmlns:xlink="http://www.w3.org/1999/xlink" style="height: 497px;" viewBox="0 0 550 470" width="160"  height="136.72727272727272" ><g fill="#FFFFFF" fill-rule="evenodd" stroke="none" stroke-width="1" stroke-linecap="butt" stroke-linejoin="miter" stroke-miterlimit="10" stroke-dasharray="" stroke-dashoffset="0" font-family="none" font-weight="none" font-size="none" text-anchor="none" style="mix-blend-mode: normal"><g data-paper-data="{&quot;isGlobalGroup&quot;:true,&quot;bounds&quot;:{&quot;x&quot;:64.99999999999999,&quot;y&quot;:160.20301030268521,&quot;width&quot;:419.99999999999994,&quot;height&quot;:149.59397939462954}}" fill="#FFFFFF"><g data-paper-data="{&quot;isContainerElementsWrapper&quot;:true}" id="element-id-17506" fill="#FFFFFF"><path d="M65,292.0196c0,4.90932 1.73572,9.09969 5.20716,12.57114c3.47126,3.47084 7.66149,5.20626 12.57068,5.20626h384.44386c4.90932,0 9.09939,-1.73572 12.57023,-5.20716c3.47205,-3.47084 5.20807,-7.66091 5.20807,-12.57023v-114.03829c0,-4.90932 -1.73602,-9.09969 -5.20807,-12.57114c-3.47084,-3.47144 -7.66091,-5.20716 -12.57023,-5.20716h-384.44386c-4.90938,0 -9.09972,1.73602 -12.57105,5.20807c-3.4712,3.47084 -5.2068,7.66091 -5.2068,12.57023zM82.77784,302.04696c-2.7693,0 -5.133,-0.97902 -7.09111,-2.93707c-1.95805,-1.95744 -2.93707,-4.32087 -2.93707,-7.09029v-114.03829c0,-2.76942 0.97914,-5.13315 2.93743,-7.0912c1.95805,-1.95805 4.32163,-2.93707 7.09075,-2.93707h384.44386c2.76942,0 5.13315,0.97933 7.0912,2.93798c1.95805,1.95744 2.93707,4.32087 2.93707,7.09029v114.03829c0,2.76942 -0.97902,5.13315 -2.93707,7.0912c-1.95805,1.95744 -4.32178,2.93616 -7.0912,2.93616z" data-paper-data="{&quot;isOuterDoubleOutline&quot;:true}" id="element-id-68964" fill="#FFFFFF"></path><path d="M78.24673,292.0196c0,2.50208 2.02858,4.53112 4.53112,4.53112h384.44386c2.50299,0 4.53112,-2.02903 4.53112,-4.53112v-114.03829c0,-2.50208 -2.02813,-4.53112 -4.53112,-4.53112h-384.44386c-2.50254,0 -4.53112,2.02903 -4.53112,4.53112zM242.25166,273.48279h-65.49007c-0.0444,0 -0.07975,-0.03625 -0.07975,-0.08065v-76.72453c0,-0.0444 0.03534,-0.08065 0.07975,-0.08065h65.49007c0.0444,0 0.08065,0.03625 0.08065,0.08065v15.34509c0,0.0435 -0.03625,0.07975 -0.08065,0.07975h-50.06433v15.18469h34.72559c0.0435,0 0.07975,0.03625 0.07975,0.07975v15.34509c0,0.0444 -0.03625,0.08065 -0.07975,0.08065h-34.72559v15.18469h50.06433c0.0444,0 0.08065,0.03625 0.08065,0.07975v15.34509c0,0.0444 -0.03625,0.08065 -0.08065,0.08065zM116.72789,273.4846h-15.33503c-0.04413,0 -0.08002,-0.03625 -0.08002,-0.08065v-76.72453c0,-0.0444 0.03589,-0.08065 0.08002,-0.08065h18.03739c0.02719,0 0.05347,0.0145 0.06797,0.03806l31.96161,51.68738v-51.64479c0,-0.0444 0.03625,-0.08065 0.07975,-0.08065h15.34146c0.0444,0 0.07975,0.03625 0.07975,0.08065v76.72453c0,0.0444 -0.03534,0.08065 -0.07975,0.08065h-18.03657c-0.02809,0 -0.05347,-0.0145 -0.06797,-0.03806l-31.96886,-51.68738v51.64479c0,0.0444 -0.03534,0.08065 -0.07975,0.08065zM317.68028,196.64045c-0.01359,-0.02628 -0.04078,-0.04169 -0.06978,-0.04169h-18.02932c-0.02809,0 -0.05437,0.0145 -0.06797,0.03806l-14.64004,23.67238l-14.63823,-23.67238c-0.0145,-0.02356 -0.04078,-0.03806 -0.06797,-0.03806h-18.03657c-0.029,0 -0.05619,0.01631 -0.06978,0.04169c-0.01359,0.02537 -0.01359,0.05619 0.00181,0.08065l23.69956,38.31967l-23.69956,38.32058c-0.0145,0.02537 -0.01541,0.05619 -0.00181,0.08065c0.01359,0.02537 0.04078,0.04078 0.06978,0.04078h18.03657c0.02719,0 0.05347,-0.01359 0.06797,-0.03716l14.63823,-23.67238l14.64004,23.67238c0.01359,0.02356 0.03987,0.03716 0.06797,0.03716h18.02932c0.029,0 0.05619,-0.01541 0.06978,-0.04078c0.01359,-0.02537 0.01359,-0.05619 -0.00181,-0.08065l-23.69594,-38.32058l23.69594,-38.31967c0.01541,-0.02447 0.01631,-0.05528 0.00181,-0.08065zM423.9178,273.4846c0.03534,0 0.06525,-0.02266 0.07612,-0.05619l24.68916,-76.72453c0.00725,-0.02447 0.00362,-0.05165 -0.01178,-0.0725c-0.01541,-0.01994 -0.03987,-0.03262 -0.06525,-0.03262h-16.10903c-0.03534,0 -0.06615,0.02266 -0.07612,0.05619l-16.55852,51.45901l-16.55761,-51.45901c-0.01087,-0.03353 -0.04169,-0.05619 -0.07703,-0.05619h-16.10903c-0.02537,0 -0.04894,0.01269 -0.06434,0.03262c-0.01541,0.02084 -0.01994,0.04803 -0.01269,0.0725l24.69007,76.72453c0.00997,0.03353 0.04078,0.05619 0.07612,0.05619zM378.78151,262.22296c-7.49447,7.49447 -17.33878,11.24171 -27.18309,11.24171c-9.84431,0 -19.68862,-3.74724 -27.18309,-11.24261c-7.26157,-7.26066 -11.25983,-16.91376 -11.25983,-27.18309c0,-10.26842 3.99826,-19.92242 11.25983,-27.18309c14.98894,-14.98894 39.37723,-14.98894 54.36618,0c0.03081,0.03172 0.03081,0.08156 0,0.11328l-10.85022,10.85112c-0.02991,0.02991 -0.08247,0.02991 -0.11418,0c-8.94262,-8.94352 -23.49476,-8.94352 -32.43828,0c-4.33175,4.33266 -6.71784,10.09261 -6.71784,16.21959c0,6.12698 2.38518,11.88694 6.71784,16.21869c8.94352,8.94352 23.49566,8.94352 32.43828,0c0.03172,-0.02991 0.08428,-0.02991 0.11418,0l10.85022,10.85112c0.03081,0.03172 0.03081,0.08247 0,0.11328z" data-paper-data="{&quot;isBaseLogoContainer&quot;:true}" id="element-id-71747" fill="#FFFFFF"></path></g></g></g><rect data-element-id="element-id-17506" stroke-width="2px" fill="#000000" class="invisible-element-box grouping-element" x="65" y="160" width="420" height="150" data-element-name="isContainerElementsWrapper" fill-opacity="0"></rect><rect data-element-id="element-id-68964" stroke-width="2px" fill="#000000" class="invisible-element-box individual-element" x="65" y="160" width="420" height="150" fill-opacity="0"></rect><rect data-element-id="element-id-71747" stroke-width="2px" fill="#000000" class="invisible-element-box individual-element" x="78" y="173" width="394" height="123" fill-opacity="0"></rect></svg>